# xmcd CD database file
#
# Track frame offsets:
#	150
#	11440
#	29780
#	44295
#	59427
#	82532
#	95687
#	117000
#	134795
#	153642
#	174697
#	196029
#	216635
#	241412
#	259582
#
# Disc length: 3698 seconds
#
# Revision: 0
# Processed by: cddbd v1.5.2PL0 Copyright (c) Steve Scherf et al.
# Submitted via: CDex 1.50
#
DISCID=d20e700f
DTITLE=Johnny Halliday - Collection artistes de légende
DYEAR=2006
DGENRE=Variété Française
TTITLE0=L'idole des jeunes
TTITLE1=Le pénitencier
TTITLE2=Noir c'est noir
TTITLE3=Que je t'aime
TTITLE4=La musique que j'aime
TTITLE5=Gabrielle
TTITLE6=J'ai oublié de vivre
TTITLE7=Ma gueule
TTITLE8=Quelque chose de Tennessee
TTITLE9=J'oublierai ton nom
TTITLE10=Laura
TTITLE11=J'la croise tous les matins
TTITLE12=Allumer le feu
TTITLE13=Un jour viendra
TTITLE14=Marie
EXTD=YEAR: 2006
EXTT0=
EXTT1=
EXTT2=
EXTT3=
EXTT4=
EXTT5=
EXTT6=
EXTT7=
EXTT8=
EXTT9=
EXTT10=
EXTT11=
EXTT12=
EXTT13=
EXTT14=
PLAYORDER=
